<svg width="367" height="93" viewBox="0 0 367 93" fill="none" xmlns="http://www.w3.org/2000/svg">
<path fill-rule="evenodd" clip-rule="evenodd" d="M45.0345 4.56307L30.8559 18.7416C30.0929 19.5046 30.0929 20.7417 30.8559 21.5047L45.0345 35.6833C45.7975 36.4463 47.0346 36.4463 47.7976 35.6833L61.9761 21.5047C62.7391 20.7417 62.7391 19.5046 61.9761 18.7416L47.7976 4.56307C47.0346 3.80007 45.7975 3.80007 45.0345 4.56307ZM28.0928 15.9786C25.8038 18.2676 25.8038 21.9788 28.0928 24.2678L42.2714 38.4464C44.5604 40.7354 48.2716 40.7353 50.5606 38.4463L64.7392 24.2678C67.0282 21.9788 67.0282 18.2676 64.7392 15.9786L50.5606 1.8C48.2716 -0.488999 44.5604 -0.488997 42.2714 1.8L28.0928 15.9786Z" fill="#2980FF"/>
<path fill-rule="evenodd" clip-rule="evenodd" d="M18.6591 30.9392L4.47982 45.1185C3.71682 45.8815 3.71682 47.1186 4.47982 47.8816L18.6591 62.0609C19.4221 62.8239 20.6592 62.8239 21.4222 62.0609L35.6015 47.8816C36.3645 47.1186 36.3645 45.8815 35.6015 45.1185L21.4222 30.9392C20.6592 30.1762 19.4221 30.1762 18.6591 30.9392ZM1.71675 42.3554C-0.572251 44.6444 -0.57225 48.3556 1.71675 50.6446L15.8961 64.8239C18.1851 67.1129 21.8963 67.1129 24.1853 64.8239L38.3646 50.6446C40.6536 48.3556 40.6536 44.6444 38.3646 42.3554L24.1853 28.1761C21.8963 25.8871 18.1851 25.8871 15.8961 28.1761L1.71675 42.3554Z" fill="#2980FF"/>
<path fill-rule="evenodd" clip-rule="evenodd" d="M45.0352 57.3153L30.8559 71.4946C30.0929 72.2576 30.0929 73.4947 30.8559 74.2577L45.0352 88.437C45.7982 89.2 47.0353 89.2 47.7983 88.437L61.9776 74.2577C62.7406 73.4947 62.7406 72.2576 61.9776 71.4946L47.7983 57.3153C47.0353 56.5523 45.7982 56.5523 45.0352 57.3153ZM28.0928 68.7315C25.8038 71.0205 25.8038 74.7317 28.0928 77.0207L42.2722 91.2C44.5612 93.489 48.2724 93.489 50.5614 91.2L64.7407 77.0207C67.0297 74.7317 67.0297 71.0205 64.7407 68.7315L50.5614 54.5522C48.2724 52.2632 44.5612 52.2632 42.2722 54.5522L28.0928 68.7315Z" fill="#2980FF"/>
<path d="M348.238 63.4438C345.518 63.4438 343.118 62.8838 341.038 61.7638C338.99 60.6438 337.39 59.1078 336.238 57.1558C335.118 55.2038 334.558 52.9638 334.558 50.4358C334.558 47.9078 335.102 45.6678 336.19 43.7158C337.31 41.7638 338.83 40.2438 340.75 39.1558C342.702 38.0358 344.894 37.4758 347.326 37.4758C349.79 37.4758 351.966 38.0198 353.854 39.1078C355.742 40.1958 357.214 41.7318 358.27 43.7158C359.358 45.6678 359.902 47.9558 359.902 50.5798C359.902 50.7718 359.886 50.9958 359.854 51.2518C359.854 51.5078 359.838 51.7478 359.806 51.9718H338.158V48.6598H357.406L355.534 49.8118C355.566 48.1798 355.23 46.7238 354.526 45.4438C353.822 44.1638 352.846 43.1718 351.598 42.4678C350.382 41.7318 348.958 41.3638 347.326 41.3638C345.726 41.3638 344.302 41.7318 343.054 42.4678C341.806 43.1718 340.83 44.1798 340.126 45.4918C339.422 46.7718 339.07 48.2438 339.07 49.9078V50.6758C339.07 52.3718 339.454 53.8918 340.222 55.2358C341.022 56.5478 342.126 57.5718 343.534 58.3078C344.942 59.0438 346.558 59.4118 348.382 59.4118C349.886 59.4118 351.246 59.1558 352.462 58.6438C353.71 58.1318 354.798 57.3638 355.726 56.3398L358.27 59.3158C357.118 60.6598 355.678 61.6838 353.95 62.3878C352.254 63.0918 350.35 63.4438 348.238 63.4438Z" fill="#333333"/>
<path d="M317.822 37.4758C319.902 37.4758 321.726 37.8758 323.294 38.6758C324.894 39.4758 326.142 40.6918 327.038 42.3238C327.934 43.9558 328.382 46.0198 328.382 48.5158V63.1558H323.774V49.0438C323.774 46.5798 323.166 44.7238 321.95 43.4758C320.766 42.2278 319.086 41.6038 316.91 41.6038C315.278 41.6038 313.854 41.9238 312.638 42.5638C311.422 43.2038 310.478 44.1478 309.806 45.3958C309.166 46.6438 308.846 48.1958 308.846 50.0518V63.1558H304.238V37.7158H308.654V44.5798L307.934 42.7558C308.766 41.0918 310.046 39.7958 311.774 38.8678C313.502 37.9398 315.518 37.4758 317.822 37.4758Z" fill="#333333"/>
<path d="M284.665 63.4438C282.105 63.4438 279.833 62.8838 277.849 61.7638C275.865 60.6438 274.297 59.1078 273.145 57.1558C271.993 55.1718 271.417 52.9318 271.417 50.4358C271.417 47.9078 271.993 45.6678 273.145 43.7158C274.297 41.7638 275.865 40.2438 277.849 39.1558C279.833 38.0358 282.105 37.4758 284.665 37.4758C287.193 37.4758 289.449 38.0358 291.433 39.1558C293.449 40.2438 295.017 41.7638 296.137 43.7158C297.289 45.6358 297.865 47.8758 297.865 50.4358C297.865 52.9638 297.289 55.2038 296.137 57.1558C295.017 59.1078 293.449 60.6438 291.433 61.7638C289.449 62.8838 287.193 63.4438 284.665 63.4438ZM284.665 59.4118C286.297 59.4118 287.753 59.0438 289.033 58.3078C290.345 57.5718 291.369 56.5318 292.105 55.1878C292.841 53.8118 293.209 52.2278 293.209 50.4358C293.209 48.6118 292.841 47.0438 292.105 45.7318C291.369 44.3878 290.345 43.3478 289.033 42.6118C287.753 41.8758 286.297 41.5078 284.665 41.5078C283.033 41.5078 281.577 41.8758 280.297 42.6118C279.017 43.3478 277.993 44.3878 277.225 45.7318C276.457 47.0438 276.073 48.6118 276.073 50.4358C276.073 52.2278 276.457 53.8118 277.225 55.1878C277.993 56.5318 279.017 57.5718 280.297 58.3078C281.577 59.0438 283.033 59.4118 284.665 59.4118Z" fill="#333333"/>
<path d="M263.474 63.4439C260.914 63.4439 258.93 62.7559 257.522 61.3799C256.114 60.0039 255.41 58.036 255.41 55.476V32.1479H260.018V55.2839C260.018 56.6599 260.354 57.716 261.026 58.452C261.73 59.188 262.722 59.556 264.002 59.556C265.442 59.556 266.642 59.156 267.602 58.356L269.042 61.668C268.338 62.276 267.49 62.7239 266.498 63.0119C265.538 63.2999 264.53 63.4439 263.474 63.4439ZM251.09 41.5079V37.7159H267.314V41.5079H251.09Z" fill="#333333"/>
<path d="M237.988 63.4438C235.876 63.4438 233.86 63.1558 231.94 62.5798C230.052 62.0038 228.564 61.2998 227.476 60.4678L229.396 56.8198C230.484 57.5558 231.828 58.1798 233.428 58.6918C235.028 59.2038 236.66 59.4598 238.324 59.4598C240.468 59.4598 242.004 59.1558 242.932 58.5478C243.892 57.9398 244.372 57.0918 244.372 56.0038C244.372 55.2038 244.084 54.5798 243.508 54.1318C242.932 53.6838 242.164 53.3478 241.204 53.1238C240.276 52.8998 239.236 52.7078 238.084 52.5478C236.932 52.3558 235.78 52.1318 234.628 51.8758C233.476 51.5878 232.42 51.2038 231.46 50.7238C230.5 50.2118 229.732 49.5238 229.156 48.6598C228.58 47.7638 228.292 46.5798 228.292 45.1078C228.292 43.5718 228.724 42.2278 229.588 41.0758C230.452 39.9238 231.668 39.0438 233.236 38.4358C234.836 37.7958 236.724 37.4758 238.9 37.4758C240.564 37.4758 242.244 37.6838 243.94 38.0998C245.668 38.4838 247.076 39.0438 248.164 39.7798L246.196 43.4278C245.044 42.6598 243.844 42.1318 242.596 41.8438C241.348 41.5558 240.1 41.4118 238.852 41.4118C236.836 41.4118 235.332 41.7478 234.34 42.4198C233.348 43.0598 232.852 43.8918 232.852 44.9158C232.852 45.7798 233.14 46.4518 233.716 46.9318C234.324 47.3798 235.092 47.7318 236.02 47.9878C236.98 48.2438 238.036 48.4678 239.188 48.6598C240.34 48.8198 241.492 49.0438 242.644 49.3318C243.796 49.5878 244.836 49.9558 245.764 50.4358C246.724 50.9158 247.492 51.5878 248.068 52.4518C248.676 53.3158 248.98 54.4678 248.98 55.9078C248.98 57.4438 248.532 58.7718 247.636 59.8918C246.74 61.0118 245.476 61.8918 243.844 62.5318C242.212 63.1398 240.26 63.4438 237.988 63.4438Z" fill="#333333"/>
<path d="M211.051 63.1558V37.7158H215.467V44.6278L215.035 42.8998C215.739 41.1398 216.923 39.7958 218.587 38.8678C220.251 37.9398 222.299 37.4758 224.731 37.4758V41.9398C224.539 41.9078 224.347 41.8918 224.155 41.8918C223.995 41.8918 223.835 41.8918 223.675 41.8918C221.211 41.8918 219.259 42.6278 217.819 44.0998C216.379 45.5718 215.659 47.6998 215.659 50.4838V63.1558H211.051Z" fill="#333333"/>
<path d="M192.988 63.4438C190.268 63.4438 187.868 62.8838 185.788 61.7638C183.74 60.6438 182.14 59.1078 180.988 57.1558C179.868 55.2038 179.308 52.9638 179.308 50.4358C179.308 47.9078 179.852 45.6678 180.94 43.7158C182.06 41.7638 183.58 40.2438 185.5 39.1558C187.452 38.0358 189.644 37.4758 192.076 37.4758C194.54 37.4758 196.716 38.0198 198.604 39.1078C200.492 40.1958 201.964 41.7318 203.02 43.7158C204.108 45.6678 204.652 47.9558 204.652 50.5798C204.652 50.7718 204.636 50.9958 204.604 51.2518C204.604 51.5078 204.588 51.7478 204.556 51.9718H182.908V48.6598H202.156L200.284 49.8118C200.316 48.1798 199.98 46.7238 199.276 45.4438C198.572 44.1638 197.596 43.1718 196.348 42.4678C195.132 41.7318 193.708 41.3638 192.076 41.3638C190.476 41.3638 189.052 41.7318 187.804 42.4678C186.556 43.1718 185.58 44.1798 184.876 45.4918C184.172 46.7718 183.82 48.2438 183.82 49.9078V50.6758C183.82 52.3718 184.204 53.8918 184.972 55.2358C185.772 56.5478 186.876 57.5718 188.284 58.3078C189.692 59.0438 191.308 59.4118 193.132 59.4118C194.636 59.4118 195.996 59.1558 197.212 58.6438C198.46 58.1318 199.548 57.3638 200.476 56.3398L203.02 59.3158C201.868 60.6598 200.428 61.6838 198.7 62.3878C197.004 63.0918 195.1 63.4438 192.988 63.4438Z" fill="#333333"/>
<path d="M162.572 37.4758C164.652 37.4758 166.476 37.8758 168.044 38.6758C169.644 39.4758 170.892 40.6918 171.788 42.3238C172.684 43.9558 173.132 46.0198 173.132 48.5158V63.1558H168.524V49.0438C168.524 46.5798 167.916 44.7238 166.7 43.4758C165.516 42.2278 163.836 41.6038 161.66 41.6038C160.028 41.6038 158.604 41.9238 157.388 42.5638C156.172 43.2038 155.228 44.1478 154.556 45.3958C153.916 46.6438 153.596 48.1958 153.596 50.0518V63.1558H148.988V37.7158H153.404V44.5798L152.684 42.7558C153.516 41.0918 154.796 39.7958 156.524 38.8678C158.252 37.9398 160.268 37.4758 162.572 37.4758Z" fill="#333333"/>
<path d="M129.629 63.1558V37.7158H134.045V44.6278L133.613 42.8998C134.317 41.1398 135.501 39.7958 137.165 38.8678C138.829 37.9398 140.877 37.4758 143.309 37.4758V41.9398C143.117 41.9078 142.925 41.8918 142.733 41.8918C142.573 41.8918 142.413 41.8918 142.253 41.8918C139.789 41.8918 137.837 42.6278 136.397 44.0998C134.957 45.5718 134.237 47.6998 134.237 50.4838V63.1558H129.629Z" fill="#333333"/>
<path d="M110.056 63.4438C107.496 63.4438 105.224 62.8838 103.24 61.7638C101.256 60.6438 99.6876 59.1078 98.5356 57.1558C97.3836 55.1718 96.8076 52.9318 96.8076 50.4358C96.8076 47.9078 97.3836 45.6678 98.5356 43.7158C99.6876 41.7638 101.256 40.2438 103.24 39.1558C105.224 38.0358 107.496 37.4758 110.056 37.4758C112.584 37.4758 114.84 38.0358 116.824 39.1558C118.84 40.2438 120.408 41.7638 121.528 43.7158C122.68 45.6358 123.256 47.8758 123.256 50.4358C123.256 52.9638 122.68 55.2038 121.528 57.1558C120.408 59.1078 118.84 60.6438 116.824 61.7638C114.84 62.8838 112.584 63.4438 110.056 63.4438ZM110.056 59.4118C111.688 59.4118 113.144 59.0438 114.424 58.3078C115.736 57.5718 116.76 56.5318 117.496 55.1878C118.232 53.8118 118.6 52.2278 118.6 50.4358C118.6 48.6118 118.232 47.0438 117.496 45.7318C116.76 44.3878 115.736 43.3478 114.424 42.6118C113.144 41.8758 111.688 41.5078 110.056 41.5078C108.424 41.5078 106.968 41.8758 105.688 42.6118C104.408 43.3478 103.384 44.3878 102.616 45.7318C101.848 47.0438 101.464 48.6118 101.464 50.4358C101.464 52.2278 101.848 53.8118 102.616 55.1878C103.384 56.5318 104.408 57.5718 105.688 58.3078C106.968 59.0438 108.424 59.4118 110.056 59.4118Z" fill="#333333"/>
<path d="M70.681 55.0439L70.441 49.1879L89.497 29.5559H94.969L80.233 45.1079L77.545 48.0839L70.681 55.0439ZM66.457 63.1559V29.5559H71.257V63.1559H66.457ZM90.265 63.1559L76.489 47.1239L79.705 43.5719L95.881 63.1559H90.265Z" fill="#333333"/>
</svg>
